<?xml version="1.0" encoding="utf-8"?>
<!-- Generator: Adobe Illustrator 23.0.2, SVG Export Plug-In . SVG Version: 6.00 Build 0)  -->
<svg version="1.1" id="Layer_1" xmlns="http://www.w3.org/2000/svg" xmlns:xlink="http://www.w3.org/1999/xlink" x="0px" y="0px"
	 viewBox="0 0 361.5 326.8" style="enable-background:new 0 0 361.5 326.8;" xml:space="preserve">
<style type="text/css">
	.st0{fill:#00E3FF;}
	.st1{fill:#00FFFF;}
	.st2{fill:#64FFFF;}
</style>
<title>mal3abiLogo</title>
<g>
	<path class="st0" d="M175.9,210.9l43.1-37L87.4,20.6c-0.7-0.8-2-0.9-2.8-0.2l0,0L36.2,62l127,148
		C166.4,213.7,172.1,214.2,175.9,210.9L175.9,210.9z"/>
	<path class="st1" d="M339.8,306.9H274v-284c0-1.7,1.3-3,3-3l0,0h54.8c4.4,0,8,3.6,8,8V306.9L339.8,306.9z"/>
	<polygon class="st2" points="274,232.5 274,306.9 339.8,306.9 	"/>
	<path class="st1" d="M146.2,176.6l44.6,36.8c3.4,2.8,8.4,2.3,11.3-1.1L325.6,62.7c0.7-0.9,0.6-2.1-0.3-2.8l0,0l-46.8-38.7
		c-1.3-1.1-3.2-0.9-4.2,0.4l0,0L146.2,176.6z"/>
	<path class="st0" d="M210.2,99.7L212,166c0.1,4.4-3.4,8.1-7.8,8.2c0,0,0,0-0.1,0l-57.8,1.6L210.2,99.7z"/>
	<path class="st1" d="M21.7,306.9h65.8v-284c0-1.7-1.3-3-3-3l0,0H29.7c-4.4,0-8,3.6-8,8V306.9z"/>
	<polygon class="st2" points="87.5,232.5 87.5,306.9 21.7,306.9 	"/>
	<path class="st1" d="M168.7,116.4l-65.8-9c-4.4-0.6-7.4-4.6-6.8-9l7.8-57.3L168.7,116.4z"/>
</g>
</svg>
